<svg width="527" height="348" viewBox="0 0 527 348" fill="none" xmlns="http://www.w3.org/2000/svg">
  <path d="M248.067 1.6001L219 2.0001V5.33343C219 8.26677 219.533 8.66677 224.2 8.66677C234.2 8.66677 233.667 6.53343 233.667 43.3334C233.667 61.6001 233.267 77.3334 232.867 78.5334C232.333 79.8668 229.667 80.9334 225.533 81.4668C219.8 82.2668 219 82.8001 219 85.4668C219 87.0668 219.533 88.8001 220.2 89.2001C220.733 89.6001 240.6 89.6001 264.2 89.0668L307 88.2668V69.7334C307 53.0668 306.733 51.3334 304.733 51.3334C301 51.3334 299.667 52.9334 297.933 59.7334C294.2 74.4001 286.2 81.0668 272.333 81.2001L263.667 81.3334L263.4 58.5334C263.267 46.0001 263.533 29.8668 264.067 22.5334L265 9.33343L272.067 8.93343C278.733 8.53343 279 8.4001 279 4.53343C279 2.4001 278.6 0.800101 278.067 0.933435C277.4 1.2001 263.933 1.46677 248.067 1.6001Z" fill="black"/>
  <path d="M332.867 29.4666C325.667 31.9999 317.134 39.4666 312.734 47.0666C306.067 58.3999 308.6 72.6666 318.867 82.9333C330.2 94.3999 355 91.0666 367.534 76.3999C371.667 71.5999 372.067 70.6666 370.2 69.5999C368.734 68.7999 367.267 69.1999 365.267 71.0666C355.667 79.7333 343 77.9999 336.334 67.0666C331 58.3999 331.534 58.1333 352.734 57.7333L371.667 57.3333V50.3999C371.534 42.1333 366.467 33.7333 359 29.8666C353.4 26.7999 340.867 26.6666 332.867 29.4666ZM347.134 36.7999C347.667 38.5333 348.067 42.5333 348.2 45.5999L348.334 51.3333H341C332.467 51.3333 332.334 50.9333 336.867 41.1999C341.134 32.1333 345.4 30.2666 347.134 36.7999Z" fill="black"/>
  <path d="M129.667 87.3334C129.667 92.5334 125.933 99.2 121.667 101.333C117.533 103.467 117.4 103.467 107.267 97.4667C101.667 94.2667 94.0667 90.5334 90.3334 89.3334C81.5334 86.2667 60.4667 85.2 50.6 87.3334C32.2 91.0667 14.7334 104.4 7.26671 120.267C3.93337 127.333 3.66671 129.467 3.66671 144C3.66671 159.467 3.80004 160.4 8.06671 168.933C15.9334 185.067 27.9334 192.267 67.9334 205.467C102.2 216.667 111.133 222.8 113.533 236.4C115.667 248.267 108.2 261.333 95.8 267.333C78.0667 275.867 48.7334 269.2 32.4667 252.8C25 245.467 15.8 230.4 11.6667 218.933C8.86671 211.467 8.33337 210.667 4.86671 210.667H1.00004L0.600041 244.933L0.333374 279.333H4.60004C8.73337 279.333 9.13337 278.8 11 272.933C12.6 268 14.0667 266.133 17.9334 264L23 261.333L33.5334 267.067C49.6667 275.733 57.8 278.133 73.8 278.933C107 280.667 133.267 266.933 145.933 241.067C150.067 232.667 150.333 231.067 150.333 218.667C150.333 206.8 149.933 204.533 146.6 197.733C141.8 188 131.4 178.533 118.867 172.4C113.4 169.867 98.4667 164.267 85.6667 160C57.8 150.8 49.1334 146.667 42.6 139.467C36.8667 133.067 35.8 129.733 36.6 120.267C37.8 105.333 49.5334 95.4667 67.1334 94.2667C86.3334 93.0667 98.8667 99.2 112.333 116.133C116.867 121.733 123 131.733 126.067 138.133C130.6 148 132.2 150 134.6 150H137.667V117.333V84.6667H133.667C130.6 84.6667 129.667 85.2 129.667 87.3334Z" fill="black"/>
  <path d="M473.667 100.8C468.2 103.6 458.733 107.333 452.733 108.933L441.667 112V122.667C441.667 128.533 441.267 136.533 440.867 140.267L439.933 147.333H428.867H417.667V151.333V155.333H429H440.333V203.067C440.333 253.6 440.867 258.667 446.733 266.933C457.667 282.4 492.067 283.333 508.733 268.667C519.933 258.8 527 243.2 527 228.4C527 225.067 526.6 224.667 522.467 224.667H517.933L517 232.933C514.867 251.467 506.867 263.333 496.467 263.333C493 263.333 490.6 262.4 488.867 260.533C486.467 257.867 486.333 254.667 485.933 206.533L485.533 155.333H501H516.333V150.667V146L504.467 146.933C497.933 147.333 491.133 147.333 489.133 146.8L485.667 146V120.667C485.667 106.667 485.267 95.3333 484.733 95.4666C484.067 95.4666 479.133 97.8666 473.667 100.8Z" fill="black"/>
  <path d="M327.667 143.067C319.267 145.467 312.333 146.4 295.4 146.933C273.667 147.733 273.667 147.733 273.667 150.8C273.667 153.6 274.333 154 278.867 154C285.4 154 292.067 156.4 293.533 159.2C294.467 160.933 295.933 296 295.267 321.6C295 328.667 294.467 330.533 291.267 334.133C288.067 337.733 286.333 338.533 279.933 339.067C272.6 339.6 272.333 339.733 272.333 343.467V347.333H308.067C327.667 347.333 347.667 346.933 352.733 346.4C360.867 345.733 361.667 345.333 361.667 342.667C361.667 340.133 360.733 339.6 354.733 338.933C346.733 338.133 340.867 335.867 339.8 333.067C338.067 328.8 337.4 305.2 338.333 285.6L339.267 264.667L343.133 270C352.6 283.067 370.6 285.067 390.467 275.333C405.133 268.133 419.267 250.8 425.267 232.667C429 221.2 428.6 193.333 424.467 182.933C420.067 171.733 411.267 159.467 403.667 153.733C391.267 144.267 370.067 140.667 355.933 145.467C350.067 147.467 340.6 155.867 340.067 159.733C339.933 160.533 339.533 156.533 339.133 150.667L338.333 140L327.667 143.067ZM368.067 150.8C375.933 156.267 379 169.467 379.933 201.467C380.733 227.733 379.533 242.667 375.4 257.067C368.2 283.067 346.867 277.867 339.933 248.267C339 244 338.333 230.933 338.333 214C338.333 174.933 342.6 158.533 355 151.467C360.6 148.133 364.067 148 368.067 150.8Z" fill="black"/>
  <path d="M211 143.467C184.733 146.8 160.733 170.8 156.333 198.533C151.933 226.267 167 261.6 188.2 273.067C200.6 279.733 220.6 280.933 237.267 276C251.933 271.6 265.267 259.733 274.467 242.933C277.8 236.8 277.8 236.267 275.667 234.267C273.533 232.133 273.267 232.267 269.933 236.667C259.8 250 251 255.6 237.933 256.4C230.867 256.933 228.467 256.4 222.2 253.333C210.2 247.467 204.2 235.6 202.333 214.4L201.4 204L235.133 204.4C274.2 204.933 277.267 204.667 279.133 199.6C282.6 190.533 274.067 167.733 263.533 158.133C250.867 146.4 231.533 140.933 211 143.467ZM227.533 153.333C231.667 157.867 235.267 170.933 236.067 184.267L236.733 195.333H228.2C223.533 195.333 215.667 195.733 210.733 196.267L201.667 197.067V193.067C201.667 186.4 205.533 167.733 208.333 161.467C213.133 150.133 221.4 146.667 227.533 153.333Z" fill="black"/>
</svg>
